<svg width="10" height="8" viewBox="0 0 10 8" fill="none" xmlns="http://www.w3.org/2000/svg">
<path d="M8.03718 2.54145H2.66807L3.3959 1.78895C3.50132 1.67911 3.56055 1.53013 3.56055 1.37478C3.56055 1.21944 3.50132 1.07046 3.3959 0.960616C3.29047 0.850772 3.14748 0.789063 2.99839 0.789062C2.8493 0.789062 2.70631 0.850772 2.60089 0.960616L0.921288 2.71062C0.870318 2.76609 0.830363 2.83151 0.803716 2.90312C0.74772 3.04513 0.74772 3.20443 0.803716 3.34645C0.830363 3.41805 0.870318 3.48347 0.921288 3.53895L2.60089 5.28895C2.65293 5.34362 2.71485 5.38702 2.78308 5.41664C2.8513 5.44625 2.92448 5.4615 2.99839 5.4615C3.0723 5.4615 3.14548 5.44625 3.2137 5.41664C3.28193 5.38702 3.34385 5.34362 3.3959 5.28895C3.44837 5.23472 3.49002 5.1702 3.51845 5.09912C3.54687 5.02803 3.5615 4.95179 3.5615 4.87478C3.5615 4.79778 3.54687 4.72153 3.51845 4.65045C3.49002 4.57936 3.44837 4.51484 3.3959 4.46062L2.66807 3.70812H8.03718C8.18567 3.70812 8.32808 3.76957 8.43307 3.87897C8.53807 3.98837 8.59705 4.13674 8.59705 4.29145V6.62478C8.59705 6.77949 8.65604 6.92787 8.76103 7.03726C8.86603 7.14666 9.00843 7.20812 9.15692 7.20812C9.3054 7.20812 9.44781 7.14666 9.5528 7.03726C9.6578 6.92787 9.71678 6.77949 9.71678 6.62478V4.29145C9.71678 3.82732 9.53983 3.3822 9.22484 3.05401C8.90985 2.72582 8.48264 2.54145 8.03718 2.54145V2.54145Z" fill="#4F77FF"/>
</svg>
