<svg width="18" height="18" viewBox="0 0 18 18" fill="none" xmlns="http://www.w3.org/2000/svg">
<path d="M16.4165 0.666992H1.58317C1.34006 0.666992 1.1069 0.763569 0.934989 0.935478C0.763081 1.10739 0.666504 1.34054 0.666504 1.58366V16.417C0.666504 16.5374 0.690214 16.6566 0.736281 16.7678C0.782348 16.879 0.849869 16.9801 0.934989 17.0652C1.02011 17.1503 1.12116 17.2178 1.23238 17.2639C1.34359 17.3099 1.46279 17.3337 1.58317 17.3337H9.5665V10.8753H7.39984V8.37533H9.5665V6.50033C9.52162 6.06012 9.57359 5.61543 9.71877 5.19744C9.86394 4.77945 10.0988 4.39828 10.4069 4.08067C10.715 3.76306 11.0888 3.51669 11.5022 3.35886C11.9156 3.20102 12.3585 3.13554 12.7998 3.16699C13.4484 3.163 14.0967 3.19639 14.7415 3.26699V5.51699H13.4165C12.3665 5.51699 12.1665 6.01699 12.1665 6.74199V8.35033H14.6665L14.3415 10.8503H12.1665V17.3337H16.4165C16.5369 17.3337 16.6561 17.3099 16.7673 17.2639C16.8785 17.2178 16.9796 17.1503 17.0647 17.0652C17.1498 16.9801 17.2173 16.879 17.2634 16.7678C17.3095 16.6566 17.3332 16.5374 17.3332 16.417V1.58366C17.3332 1.46328 17.3095 1.34408 17.2634 1.23287C17.2173 1.12165 17.1498 1.0206 17.0647 0.935478C16.9796 0.850357 16.8785 0.782836 16.7673 0.736769C16.6561 0.690703 16.5369 0.666992 16.4165 0.666992Z" fill="#7B88A8"/>
</svg>
